<svg aria-roledescription="er" role="graphics-document document" viewBox="0 0 410.77435302734375 452" style="max-width: 410.774px; background-color: white;" xmlns:xlink="http://www.w3.org/1999/xlink" xmlns="http://www.w3.org/2000/svg" width="100%" id="mermaid-0"><style>#mermaid-0{font-family:"trebuchet ms",verdana,arial,sans-serif;font-size:16px;fill:#000000;}#mermaid-0 .error-icon{fill:#552222;}#mermaid-0 .error-text{fill:#552222;stroke:#552222;}#mermaid-0 .edge-thickness-normal{stroke-width:2px;}#mermaid-0 .edge-thickness-thick{stroke-width:3.5px;}#mermaid-0 .edge-pattern-solid{stroke-dasharray:0;}#mermaid-0 .edge-pattern-dashed{stroke-dasharray:3;}#mermaid-0 .edge-pattern-dotted{stroke-dasharray:2;}#mermaid-0 .marker{fill:#000000;stroke:#000000;}#mermaid-0 .marker.cross{stroke:#000000;}#mermaid-0 svg{font-family:"trebuchet ms",verdana,arial,sans-serif;font-size:16px;}#mermaid-0 .entityBox{fill:#cde498;stroke:#13540c;}#mermaid-0 .attributeBoxOdd{fill:#ffffff;stroke:#13540c;}#mermaid-0 .attributeBoxEven{fill:#f2f2f2;stroke:#13540c;}#mermaid-0 .relationshipLabelBox{fill:hsl(78.1578947368, 58.4615384615%, 84.5098039216%);opacity:0.7;background-color:hsl(78.1578947368, 58.4615384615%, 84.5098039216%);}#mermaid-0 .relationshipLabelBox rect{opacity:0.5;}#mermaid-0 .relationshipLine{stroke:#000000;}#mermaid-0 .entityTitleText{text-anchor:middle;font-size:18px;fill:#000000;}#mermaid-0 :root{--mermaid-font-family:"trebuchet ms",verdana,arial,sans-serif;}</style><g/><defs><marker orient="auto" markerHeight="18" markerWidth="18" refY="9" refX="0" id="ONLY_ONE_START"><path d="M9,0 L9,18 M15,0 L15,18" fill="none" stroke="gray"/></marker></defs><defs><marker orient="auto" markerHeight="18" markerWidth="18" refY="9" refX="18" id="ONLY_ONE_END"><path d="M3,0 L3,18 M9,0 L9,18" fill="none" stroke="gray"/></marker></defs><defs><marker orient="auto" markerHeight="18" markerWidth="30" refY="9" refX="0" id="ZERO_OR_ONE_START"><circle r="6" cy="9" cx="21" fill="white" stroke="gray"/><path d="M9,0 L9,18" fill="none" stroke="gray"/></marker></defs><defs><marker orient="auto" markerHeight="18" markerWidth="30" refY="9" refX="30" id="ZERO_OR_ONE_END"><circle r="6" cy="9" cx="9" fill="white" stroke="gray"/><path d="M21,0 L21,18" fill="none" stroke="gray"/></marker></defs><defs><marker orient="auto" markerHeight="36" markerWidth="45" refY="18" refX="18" id="ONE_OR_MORE_START"><path d="M0,18 Q 18,0 36,18 Q 18,36 0,18 M42,9 L42,27" fill="none" stroke="gray"/></marker></defs><defs><marker orient="auto" markerHeight="36" markerWidth="45" refY="18" refX="27" id="ONE_OR_MORE_END"><path d="M3,9 L3,27 M9,18 Q27,0 45,18 Q27,36 9,18" fill="none" stroke="gray"/></marker></defs><defs><marker orient="auto" markerHeight="36" markerWidth="57" refY="18" refX="18" id="ZERO_OR_MORE_START"><circle r="6" cy="18" cx="48" fill="white" stroke="gray"/><path d="M0,18 Q18,0 36,18 Q18,36 0,18" fill="none" stroke="gray"/></marker></defs><defs><marker orient="auto" markerHeight="36" markerWidth="57" refY="18" refX="39" id="ZERO_OR_MORE_END"><circle r="6" cy="18" cx="9" fill="white" stroke="gray"/><path d="M21,18 Q39,0 57,18 Q39,36 21,18" fill="none" stroke="gray"/></marker></defs><path style="stroke: gray; fill: none;" marker-start="url(#ZERO_OR_MORE_START)" marker-end="url(#ONLY_ONE_END)" d="M149.76158142089844,196.55229028440215L139.4169158935547,205.12690857033513C129.07225036621094,213.7015268562681,108.38291931152344,230.85076342813406,98.03825378417969,247.7587150474004C87.69358825683594,264.6666666666667,87.69358825683594,281.3333333333333,87.69358825683594,289.6666666666667L87.69358825683594,298" class="er relationshipLine"/><path style="stroke: gray; fill: none;" marker-start="url(#ZERO_OR_MORE_START)" marker-end="url(#ONLY_ONE_END)" d="M255.38717651367188,198L255.38717651367188,206.33333333333334C255.38717651367188,214.66666666666666,255.38717651367188,231.33333333333334,260.20865715874567,248C265.0301378038194,264.6666666666667,274.673099093967,281.3333333333333,279.4945797390408,289.6666666666667L284.31606038411456,298" class="er relationshipLine"/><path style="stroke: gray; fill: none;" marker-start="url(#ZERO_OR_MORE_START)" marker-end="url(#ONLY_ONE_END)" d="M330.74494165653806,198L337.800912175533,206.33333333333334C344.85688269452794,214.66666666666666,358.9688237325179,231.33333333333334,362.4635406902593,248C365.95825764800065,264.6666666666667,358.83575052549355,281.3333333333333,355.27449696424,289.6666666666667L351.71324340298645,298" class="er relationshipLine"/><g transform="translate(255.38717651367188,298 )" id="entity-users-33ae1e26-be31-5c1d-bf65-e859e9d0308e"><rect height="134" width="135.38717651367188" y="0" x="0" class="er entityBox"/><text style="dominant-baseline: middle; text-anchor: middle; font-size: 12px;" transform="translate(67.69358825683594,12)" y="0" x="0" id="text-entity-users-33ae1e26-be31-5c1d-bf65-e859e9d0308e" class="er entityLabel">users</text><rect height="22" width="54.095550537109375" y="24" x="0" class="er attributeBoxOdd"/><text style="dominant-baseline: middle; font-size: 10.2px;" transform="translate(5,35)" y="0" x="0" id="text-entity-users-33ae1e26-be31-5c1d-bf65-e859e9d0308e-attr-1-type" class="er entityLabel">String</text><rect height="22" width="58.60394287109375" y="24" x="54.095550537109375" class="er attributeBoxOdd"/><text style="dominant-baseline: middle; font-size: 10.2px;" transform="translate(59.095550537109375,35)" y="0" x="0" id="text-entity-users-33ae1e26-be31-5c1d-bf65-e859e9d0308e-attr-1-name" class="er entityLabel">id</text><rect height="22" width="22.68768310546875" y="24" x="112.69949340820312" class="er attributeBoxOdd"/><text style="dominant-baseline: middle; font-size: 10.2px;" transform="translate(117.69949340820312,35)" y="0" x="0" id="text-entity-users-33ae1e26-be31-5c1d-bf65-e859e9d0308e-attr-1-key" class="er entityLabel">PK</text><rect height="22" width="54.095550537109375" y="46" x="0" class="er attributeBoxEven"/><text style="dominant-baseline: middle; font-size: 10.2px;" transform="translate(5,57)" y="0" x="0" id="text-entity-users-33ae1e26-be31-5c1d-bf65-e859e9d0308e-attr-2-type" class="er entityLabel">String</text><rect height="22" width="58.60394287109375" y="46" x="54.095550537109375" class="er attributeBoxEven"/><text style="dominant-baseline: middle; font-size: 10.2px;" transform="translate(59.095550537109375,57)" y="0" x="0" id="text-entity-users-33ae1e26-be31-5c1d-bf65-e859e9d0308e-attr-2-name" class="er entityLabel">email</text><rect height="22" width="22.68768310546875" y="46" x="112.69949340820312" class="er attributeBoxEven"/><text style="dominant-baseline: middle; font-size: 10.2px;" transform="translate(117.69949340820312,57)" y="0" x="0" id="text-entity-users-33ae1e26-be31-5c1d-bf65-e859e9d0308e-attr-2-key" class="er entityLabel"/><rect height="22" width="54.095550537109375" y="68" x="0" class="er attributeBoxOdd"/><text style="dominant-baseline: middle; font-size: 10.2px;" transform="translate(5,79)" y="0" x="0" id="text-entity-users-33ae1e26-be31-5c1d-bf65-e859e9d0308e-attr-3-type" class="er entityLabel">String</text><rect height="22" width="58.60394287109375" y="68" x="54.095550537109375" class="er attributeBoxOdd"/><text style="dominant-baseline: middle; font-size: 10.2px;" transform="translate(59.095550537109375,79)" y="0" x="0" id="text-entity-users-33ae1e26-be31-5c1d-bf65-e859e9d0308e-attr-3-name" class="er entityLabel">name</text><rect height="22" width="22.68768310546875" y="68" x="112.69949340820312" class="er attributeBoxOdd"/><text style="dominant-baseline: middle; font-size: 10.2px;" transform="translate(117.69949340820312,79)" y="0" x="0" id="text-entity-users-33ae1e26-be31-5c1d-bf65-e859e9d0308e-attr-3-key" class="er entityLabel"/><rect height="22" width="54.095550537109375" y="90" x="0" class="er attributeBoxEven"/><text style="dominant-baseline: middle; font-size: 10.2px;" transform="translate(5,101)" y="0" x="0" id="text-entity-users-33ae1e26-be31-5c1d-bf65-e859e9d0308e-attr-4-type" class="er entityLabel">DateTime</text><rect height="22" width="58.60394287109375" y="90" x="54.095550537109375" class="er attributeBoxEven"/><text style="dominant-baseline: middle; font-size: 10.2px;" transform="translate(59.095550537109375,101)" y="0" x="0" id="text-entity-users-33ae1e26-be31-5c1d-bf65-e859e9d0308e-attr-4-name" class="er entityLabel">createdAt</text><rect height="22" width="22.68768310546875" y="90" x="112.69949340820312" class="er attributeBoxEven"/><text style="dominant-baseline: middle; font-size: 10.2px;" transform="translate(117.69949340820312,101)" y="0" x="0" id="text-entity-users-33ae1e26-be31-5c1d-bf65-e859e9d0308e-attr-4-key" class="er entityLabel"/><rect height="22" width="54.095550537109375" y="112" x="0" class="er attributeBoxOdd"/><text style="dominant-baseline: middle; font-size: 10.2px;" transform="translate(5,123)" y="0" x="0" id="text-entity-users-33ae1e26-be31-5c1d-bf65-e859e9d0308e-attr-5-type" class="er entityLabel">DateTime</text><rect height="22" width="58.60394287109375" y="112" x="54.095550537109375" class="er attributeBoxOdd"/><text style="dominant-baseline: middle; font-size: 10.2px;" transform="translate(59.095550537109375,123)" y="0" x="0" id="text-entity-users-33ae1e26-be31-5c1d-bf65-e859e9d0308e-attr-5-name" class="er entityLabel">updatedAt</text><rect height="22" width="22.68768310546875" y="112" x="112.69949340820312" class="er attributeBoxOdd"/><text style="dominant-baseline: middle; font-size: 10.2px;" transform="translate(117.69949340820312,123)" y="0" x="0" id="text-entity-users-33ae1e26-be31-5c1d-bf65-e859e9d0308e-attr-5-key" class="er entityLabel"/></g><g transform="translate(20,298 )" id="entity-messages-4fc80eaa-db1c-5c89-b1f4-e48b025292d9"><rect height="134" width="135.38717651367188" y="0" x="0" class="er entityBox"/><text style="dominant-baseline: middle; text-anchor: middle; font-size: 12px;" transform="translate(67.69358825683594,12)" y="0" x="0" id="text-entity-messages-4fc80eaa-db1c-5c89-b1f4-e48b025292d9" class="er entityLabel">messages</text><rect height="22" width="54.095550537109375" y="24" x="0" class="er attributeBoxOdd"/><text style="dominant-baseline: middle; font-size: 10.2px;" transform="translate(5,35)" y="0" x="0" id="text-entity-messages-4fc80eaa-db1c-5c89-b1f4-e48b025292d9-attr-1-type" class="er entityLabel">String</text><rect height="22" width="58.60394287109375" y="24" x="54.095550537109375" class="er attributeBoxOdd"/><text style="dominant-baseline: middle; font-size: 10.2px;" transform="translate(59.095550537109375,35)" y="0" x="0" id="text-entity-messages-4fc80eaa-db1c-5c89-b1f4-e48b025292d9-attr-1-name" class="er entityLabel">id</text><rect height="22" width="22.68768310546875" y="24" x="112.69949340820312" class="er attributeBoxOdd"/><text style="dominant-baseline: middle; font-size: 10.2px;" transform="translate(117.69949340820312,35)" y="0" x="0" id="text-entity-messages-4fc80eaa-db1c-5c89-b1f4-e48b025292d9-attr-1-key" class="er entityLabel">PK</text><rect height="22" width="54.095550537109375" y="46" x="0" class="er attributeBoxEven"/><text style="dominant-baseline: middle; font-size: 10.2px;" transform="translate(5,57)" y="0" x="0" id="text-entity-messages-4fc80eaa-db1c-5c89-b1f4-e48b025292d9-attr-2-type" class="er entityLabel">String</text><rect height="22" width="58.60394287109375" y="46" x="54.095550537109375" class="er attributeBoxEven"/><text style="dominant-baseline: middle; font-size: 10.2px;" transform="translate(59.095550537109375,57)" y="0" x="0" id="text-entity-messages-4fc80eaa-db1c-5c89-b1f4-e48b025292d9-attr-2-name" class="er entityLabel">body</text><rect height="22" width="22.68768310546875" y="46" x="112.69949340820312" class="er attributeBoxEven"/><text style="dominant-baseline: middle; font-size: 10.2px;" transform="translate(117.69949340820312,57)" y="0" x="0" id="text-entity-messages-4fc80eaa-db1c-5c89-b1f4-e48b025292d9-attr-2-key" class="er entityLabel"/><rect height="22" width="54.095550537109375" y="68" x="0" class="er attributeBoxOdd"/><text style="dominant-baseline: middle; font-size: 10.2px;" transform="translate(5,79)" y="0" x="0" id="text-entity-messages-4fc80eaa-db1c-5c89-b1f4-e48b025292d9-attr-3-type" class="er entityLabel">String</text><rect height="22" width="58.60394287109375" y="68" x="54.095550537109375" class="er attributeBoxOdd"/><text style="dominant-baseline: middle; font-size: 10.2px;" transform="translate(59.095550537109375,79)" y="0" x="0" id="text-entity-messages-4fc80eaa-db1c-5c89-b1f4-e48b025292d9-attr-3-name" class="er entityLabel">subject</text><rect height="22" width="22.68768310546875" y="68" x="112.69949340820312" class="er attributeBoxOdd"/><text style="dominant-baseline: middle; font-size: 10.2px;" transform="translate(117.69949340820312,79)" y="0" x="0" id="text-entity-messages-4fc80eaa-db1c-5c89-b1f4-e48b025292d9-attr-3-key" class="er entityLabel"/><rect height="22" width="54.095550537109375" y="90" x="0" class="er attributeBoxEven"/><text style="dominant-baseline: middle; font-size: 10.2px;" transform="translate(5,101)" y="0" x="0" id="text-entity-messages-4fc80eaa-db1c-5c89-b1f4-e48b025292d9-attr-4-type" class="er entityLabel">DateTime</text><rect height="22" width="58.60394287109375" y="90" x="54.095550537109375" class="er attributeBoxEven"/><text style="dominant-baseline: middle; font-size: 10.2px;" transform="translate(59.095550537109375,101)" y="0" x="0" id="text-entity-messages-4fc80eaa-db1c-5c89-b1f4-e48b025292d9-attr-4-name" class="er entityLabel">createdAt</text><rect height="22" width="22.68768310546875" y="90" x="112.69949340820312" class="er attributeBoxEven"/><text style="dominant-baseline: middle; font-size: 10.2px;" transform="translate(117.69949340820312,101)" y="0" x="0" id="text-entity-messages-4fc80eaa-db1c-5c89-b1f4-e48b025292d9-attr-4-key" class="er entityLabel"/><rect height="22" width="54.095550537109375" y="112" x="0" class="er attributeBoxOdd"/><text style="dominant-baseline: middle; font-size: 10.2px;" transform="translate(5,123)" y="0" x="0" id="text-entity-messages-4fc80eaa-db1c-5c89-b1f4-e48b025292d9-attr-5-type" class="er entityLabel">DateTime</text><rect height="22" width="58.60394287109375" y="112" x="54.095550537109375" class="er attributeBoxOdd"/><text style="dominant-baseline: middle; font-size: 10.2px;" transform="translate(59.095550537109375,123)" y="0" x="0" id="text-entity-messages-4fc80eaa-db1c-5c89-b1f4-e48b025292d9-attr-5-name" class="er entityLabel">updatedAt</text><rect height="22" width="22.68768310546875" y="112" x="112.69949340820312" class="er attributeBoxOdd"/><text style="dominant-baseline: middle; font-size: 10.2px;" transform="translate(117.69949340820312,123)" y="0" x="0" id="text-entity-messages-4fc80eaa-db1c-5c89-b1f4-e48b025292d9-attr-5-key" class="er entityLabel"/></g><g transform="translate(149.76158142089844,20 )" id="entity-participantsonmessages-53c5f33e-27cf-5428-8fca-04ef2092ce6f"><rect height="178" width="211.25119018554688" y="0" x="0" class="er entityBox"/><text style="dominant-baseline: middle; text-anchor: middle; font-size: 12px;" transform="translate(105.62559509277344,12)" y="0" x="0" id="text-entity-participantsonmessages-53c5f33e-27cf-5428-8fca-04ef2092ce6f" class="er entityLabel">participants_on_messages</text><rect height="22" width="54.095550537109375" y="24" x="0" class="er attributeBoxOdd"/><text style="dominant-baseline: middle; font-size: 10.2px;" transform="translate(5,35)" y="0" x="0" id="text-entity-participantsonmessages-53c5f33e-27cf-5428-8fca-04ef2092ce6f-attr-1-type" class="er entityLabel">String</text><rect height="22" width="87.25541687011719" y="24" x="54.095550537109375" class="er attributeBoxOdd"/><text style="dominant-baseline: middle; font-size: 10.2px;" transform="translate(59.095550537109375,35)" y="0" x="0" id="text-entity-participantsonmessages-53c5f33e-27cf-5428-8fca-04ef2092ce6f-attr-1-name" class="er entityLabel">id</text><rect height="22" width="22.68768310546875" y="24" x="141.35096740722656" class="er attributeBoxOdd"/><text style="dominant-baseline: middle; font-size: 10.2px;" transform="translate(146.35096740722656,35)" y="0" x="0" id="text-entity-participantsonmessages-53c5f33e-27cf-5428-8fca-04ef2092ce6f-attr-1-key" class="er entityLabel">PK</text><rect height="22" width="47.21253967285156" y="24" x="164.0386505126953" class="er attributeBoxOdd"/><text style="dominant-baseline: middle; font-size: 10.2px;" transform="translate(169.0386505126953,35)" y="0" x="0" id="text-entity-participantsonmessages-53c5f33e-27cf-5428-8fca-04ef2092ce6f-attr-1-comment" class="er entityLabel"/><rect height="22" width="54.095550537109375" y="46" x="0" class="er attributeBoxEven"/><text style="dominant-baseline: middle; font-size: 10.2px;" transform="translate(5,57)" y="0" x="0" id="text-entity-participantsonmessages-53c5f33e-27cf-5428-8fca-04ef2092ce6f-attr-2-type" class="er entityLabel">String</text><rect height="22" width="87.25541687011719" y="46" x="54.095550537109375" class="er attributeBoxEven"/><text style="dominant-baseline: middle; font-size: 10.2px;" transform="translate(59.095550537109375,57)" y="0" x="0" id="text-entity-participantsonmessages-53c5f33e-27cf-5428-8fca-04ef2092ce6f-attr-2-name" class="er entityLabel">replyToId</text><rect height="22" width="22.68768310546875" y="46" x="141.35096740722656" class="er attributeBoxEven"/><text style="dominant-baseline: middle; font-size: 10.2px;" transform="translate(146.35096740722656,57)" y="0" x="0" id="text-entity-participantsonmessages-53c5f33e-27cf-5428-8fca-04ef2092ce6f-attr-2-key" class="er entityLabel"/><rect height="22" width="47.21253967285156" y="46" x="164.0386505126953" class="er attributeBoxEven"/><text style="dominant-baseline: middle; font-size: 10.2px;" transform="translate(169.0386505126953,57)" y="0" x="0" id="text-entity-participantsonmessages-53c5f33e-27cf-5428-8fca-04ef2092ce6f-attr-2-comment" class="er entityLabel">nullable</text><rect height="22" width="54.095550537109375" y="68" x="0" class="er attributeBoxOdd"/><text style="dominant-baseline: middle; font-size: 10.2px;" transform="translate(5,79)" y="0" x="0" id="text-entity-participantsonmessages-53c5f33e-27cf-5428-8fca-04ef2092ce6f-attr-3-type" class="er entityLabel">Boolean</text><rect height="22" width="87.25541687011719" y="68" x="54.095550537109375" class="er attributeBoxOdd"/><text style="dominant-baseline: middle; font-size: 10.2px;" transform="translate(59.095550537109375,79)" y="0" x="0" id="text-entity-participantsonmessages-53c5f33e-27cf-5428-8fca-04ef2092ce6f-attr-3-name" class="er entityLabel">isRead</text><rect height="22" width="22.68768310546875" y="68" x="141.35096740722656" class="er attributeBoxOdd"/><text style="dominant-baseline: middle; font-size: 10.2px;" transform="translate(146.35096740722656,79)" y="0" x="0" id="text-entity-participantsonmessages-53c5f33e-27cf-5428-8fca-04ef2092ce6f-attr-3-key" class="er entityLabel"/><rect height="22" width="47.21253967285156" y="68" x="164.0386505126953" class="er attributeBoxOdd"/><text style="dominant-baseline: middle; font-size: 10.2px;" transform="translate(169.0386505126953,79)" y="0" x="0" id="text-entity-participantsonmessages-53c5f33e-27cf-5428-8fca-04ef2092ce6f-attr-3-comment" class="er entityLabel"/><rect height="22" width="54.095550537109375" y="90" x="0" class="er attributeBoxEven"/><text style="dominant-baseline: middle; font-size: 10.2px;" transform="translate(5,101)" y="0" x="0" id="text-entity-participantsonmessages-53c5f33e-27cf-5428-8fca-04ef2092ce6f-attr-4-type" class="er entityLabel">Boolean</text><rect height="22" width="87.25541687011719" y="90" x="54.095550537109375" class="er attributeBoxEven"/><text style="dominant-baseline: middle; font-size: 10.2px;" transform="translate(59.095550537109375,101)" y="0" x="0" id="text-entity-participantsonmessages-53c5f33e-27cf-5428-8fca-04ef2092ce6f-attr-4-name" class="er entityLabel">senderDeleted</text><rect height="22" width="22.68768310546875" y="90" x="141.35096740722656" class="er attributeBoxEven"/><text style="dominant-baseline: middle; font-size: 10.2px;" transform="translate(146.35096740722656,101)" y="0" x="0" id="text-entity-participantsonmessages-53c5f33e-27cf-5428-8fca-04ef2092ce6f-attr-4-key" class="er entityLabel"/><rect height="22" width="47.21253967285156" y="90" x="164.0386505126953" class="er attributeBoxEven"/><text style="dominant-baseline: middle; font-size: 10.2px;" transform="translate(169.0386505126953,101)" y="0" x="0" id="text-entity-participantsonmessages-53c5f33e-27cf-5428-8fca-04ef2092ce6f-attr-4-comment" class="er entityLabel"/><rect height="22" width="54.095550537109375" y="112" x="0" class="er attributeBoxOdd"/><text style="dominant-baseline: middle; font-size: 10.2px;" transform="translate(5,123)" y="0" x="0" id="text-entity-participantsonmessages-53c5f33e-27cf-5428-8fca-04ef2092ce6f-attr-5-type" class="er entityLabel">Boolean</text><rect height="22" width="87.25541687011719" y="112" x="54.095550537109375" class="er attributeBoxOdd"/><text style="dominant-baseline: middle; font-size: 10.2px;" transform="translate(59.095550537109375,123)" y="0" x="0" id="text-entity-participantsonmessages-53c5f33e-27cf-5428-8fca-04ef2092ce6f-attr-5-name" class="er entityLabel">recipientDeleted</text><rect height="22" width="22.68768310546875" y="112" x="141.35096740722656" class="er attributeBoxOdd"/><text style="dominant-baseline: middle; font-size: 10.2px;" transform="translate(146.35096740722656,123)" y="0" x="0" id="text-entity-participantsonmessages-53c5f33e-27cf-5428-8fca-04ef2092ce6f-attr-5-key" class="er entityLabel"/><rect height="22" width="47.21253967285156" y="112" x="164.0386505126953" class="er attributeBoxOdd"/><text style="dominant-baseline: middle; font-size: 10.2px;" transform="translate(169.0386505126953,123)" y="0" x="0" id="text-entity-participantsonmessages-53c5f33e-27cf-5428-8fca-04ef2092ce6f-attr-5-comment" class="er entityLabel"/><rect height="22" width="54.095550537109375" y="134" x="0" class="er attributeBoxEven"/><text style="dominant-baseline: middle; font-size: 10.2px;" transform="translate(5,145)" y="0" x="0" id="text-entity-participantsonmessages-53c5f33e-27cf-5428-8fca-04ef2092ce6f-attr-6-type" class="er entityLabel">DateTime</text><rect height="22" width="87.25541687011719" y="134" x="54.095550537109375" class="er attributeBoxEven"/><text style="dominant-baseline: middle; font-size: 10.2px;" transform="translate(59.095550537109375,145)" y="0" x="0" id="text-entity-participantsonmessages-53c5f33e-27cf-5428-8fca-04ef2092ce6f-attr-6-name" class="er entityLabel">createdAt</text><rect height="22" width="22.68768310546875" y="134" x="141.35096740722656" class="er attributeBoxEven"/><text style="dominant-baseline: middle; font-size: 10.2px;" transform="translate(146.35096740722656,145)" y="0" x="0" id="text-entity-participantsonmessages-53c5f33e-27cf-5428-8fca-04ef2092ce6f-attr-6-key" class="er entityLabel"/><rect height="22" width="47.21253967285156" y="134" x="164.0386505126953" class="er attributeBoxEven"/><text style="dominant-baseline: middle; font-size: 10.2px;" transform="translate(169.0386505126953,145)" y="0" x="0" id="text-entity-participantsonmessages-53c5f33e-27cf-5428-8fca-04ef2092ce6f-attr-6-comment" class="er entityLabel"/><rect height="22" width="54.095550537109375" y="156" x="0" class="er attributeBoxOdd"/><text style="dominant-baseline: middle; font-size: 10.2px;" transform="translate(5,167)" y="0" x="0" id="text-entity-participantsonmessages-53c5f33e-27cf-5428-8fca-04ef2092ce6f-attr-7-type" class="er entityLabel">DateTime</text><rect height="22" width="87.25541687011719" y="156" x="54.095550537109375" class="er attributeBoxOdd"/><text style="dominant-baseline: middle; font-size: 10.2px;" transform="translate(59.095550537109375,167)" y="0" x="0" id="text-entity-participantsonmessages-53c5f33e-27cf-5428-8fca-04ef2092ce6f-attr-7-name" class="er entityLabel">updatedAt</text><rect height="22" width="22.68768310546875" y="156" x="141.35096740722656" class="er attributeBoxOdd"/><text style="dominant-baseline: middle; font-size: 10.2px;" transform="translate(146.35096740722656,167)" y="0" x="0" id="text-entity-participantsonmessages-53c5f33e-27cf-5428-8fca-04ef2092ce6f-attr-7-key" class="er entityLabel"/><rect height="22" width="47.21253967285156" y="156" x="164.0386505126953" class="er attributeBoxOdd"/><text style="dominant-baseline: middle; font-size: 10.2px;" transform="translate(169.0386505126953,167)" y="0" x="0" id="text-entity-participantsonmessages-53c5f33e-27cf-5428-8fca-04ef2092ce6f-attr-7-comment" class="er entityLabel"/></g><rect height="14" width="45.548828125" y="232.18846130371094" x="81.31106567382812" class="er relationshipLabelBox"/><text style="text-anchor: middle; dominant-baseline: middle; font-size: 12px;" y="239.18846130371094" x="104.08547973632812" id="rel1" class="er relationshipLabel">message</text><rect height="14.000015258789062" width="37.189453125" y="243.5024185180664" x="242.37338256835938" class="er relationshipLabelBox"/><text style="text-anchor: middle; dominant-baseline: middle; font-size: 12px;" y="250.50242614746094" x="260.9681091308594" id="rel2" class="er relationshipLabel">sender</text><rect height="14" width="48.78125" y="237.2340545654297" x="337.1089782714844" class="er relationshipLabelBox"/><text style="text-anchor: middle; dominant-baseline: middle; font-size: 12px;" y="244.2340545654297" x="361.4996032714844" id="rel3" class="er relationshipLabel">recipient</text></svg>